<svg xmlns="http://www.w3.org/2000/svg" data-name="Layer 1" viewBox="0 0 64 64"><path fill="#748ca6" d="M60.648 11.648l-.407-.224a.653.653 0 01-.347-.655 5.315 5.315 0 000-1.539.653.653 0 01.347-.654l.407-.224a.657.657 0 00.258-.919L59.778 5.567a.72.72 0 00-.96-.246l-.412.227a.745.745 0 01-.8-.066 6 6 0 00-1.316-.73.691.691 0 01-.458-.629V3.672a.688.688 0 00-.7-.672H52.872a.688.688 0 00-.7.672v.451a.691.691 0 01-.458.629 6 6 0 00-1.316.73.745.745 0 01-.8.066l-.412-.227a.72.72 0 00-.96.246L47.094 7.433a.657.657 0 00.258.919l.407.224a.653.653 0 01.347.654 5.315 5.315 0 000 1.539.653.653 0 01-.347.655l-.407.224a.657.657 0 00-.258.919l1.128 1.866a.72.72 0 00.96.246l.412-.227a.745.745 0 01.8.066 6 6 0 001.316.73.691.691 0 01.458.629v.451a.688.688 0 00.7.672h2.256a.688.688 0 00.7-.672v-.451a.691.691 0 01.458-.629 6 6 0 001.316-.73.745.745 0 01.8-.066l.412.227a.72.72 0 00.96-.246l1.128-1.866A.657.657 0 0060.648 11.648zM54 12.25A2.25 2.25 0 1156.25 10 2.25 2.25 0 0154 12.25zM16.648 55.648l-.407-.224a.653.653 0 01-.347-.655 5.315 5.315 0 000-1.539.653.653 0 01.347-.654l.407-.224a.657.657 0 00.258-.919l-1.128-1.866a.72.72 0 00-.96-.246l-.412.227a.745.745 0 01-.8-.066 6 6 0 00-1.316-.73.691.691 0 01-.458-.629v-.451a.688.688 0 00-.7-.672H8.872a.688.688 0 00-.7.672v.451a.691.691 0 01-.458.629 6 6 0 00-1.316.73.745.745 0 01-.8.066l-.412-.227a.72.72 0 00-.96.246L3.094 51.433a.657.657 0 00.258.919l.407.224a.653.653 0 01.347.654 5.315 5.315 0 000 1.539.653.653 0 01-.347.655l-.407.224a.657.657 0 00-.258.919l1.128 1.866a.72.72 0 00.96.246l.412-.227a.745.745 0 01.8.066 6 6 0 001.316.73.691.691 0 01.458.629v.451a.688.688 0 00.7.672h2.256a.688.688 0 00.7-.672v-.451a.691.691 0 01.458-.629 6 6 0 001.316-.73.745.745 0 01.8-.066l.412.227a.72.72 0 00.96-.246l1.128-1.866A.657.657 0 0016.648 55.648zM10 56.25A2.25 2.25 0 1112.25 54 2.25 2.25 0 0110 56.25z"/><path fill="#404040" d="M46.056,11.806a1.631,1.631,0,0,0,.182,1.277l1.128,1.868a1.729,1.729,0,0,0,2.3.6l.259-.144a6.944,6.944,0,0,0,1.243.7v.222A1.69,1.69,0,0,0,52.873,18h2.254a1.69,1.69,0,0,0,1.7-1.672v-.222a7.065,7.065,0,0,0,1.243-.694l.26.143a1.731,1.731,0,0,0,2.3-.6l1.127-1.867a1.63,1.63,0,0,0,.183-1.278,1.685,1.685,0,0,0-.812-1.033l-.216-.119a6.307,6.307,0,0,0,0-1.308l.216-.119a1.685,1.685,0,0,0,.812-1.033,1.631,1.631,0,0,0-.182-1.277L60.634,5.049a1.733,1.733,0,0,0-2.3-.6l-.259.144a6.944,6.944,0,0,0-1.243-.7V3.672A1.69,1.69,0,0,0,55.127,2H52.873a1.69,1.69,0,0,0-1.7,1.672v.222a7.065,7.065,0,0,0-1.243.694l-.26-.143a1.732,1.732,0,0,0-2.3.6L46.239,6.916a1.63,1.63,0,0,0-.183,1.278,1.685,1.685,0,0,0,.812,1.033l.216.119a6.307,6.307,0,0,0,0,1.308l-.216.119A1.685,1.685,0,0,0,46.056,11.806ZM49.05,10a4.445,4.445,0,0,1,.045-.626A1.66,1.66,0,0,0,48.243,7.7l-.107-.058.8-1.319.179.1a1.753,1.753,0,0,0,1.876-.134,4.957,4.957,0,0,1,1.1-.608,1.687,1.687,0,0,0,1.086-1.558V4h1.662v.123A1.684,1.684,0,0,0,55.917,5.68a5.024,5.024,0,0,1,1.1.61,1.753,1.753,0,0,0,1.875.133l.178-.1.8,1.319-.106.058a1.658,1.658,0,0,0-.853,1.672,4.384,4.384,0,0,1,0,1.253,1.66,1.66,0,0,0,.852,1.673l.107.058-.8,1.319-.179-.1a1.751,1.751,0,0,0-1.876.134,4.957,4.957,0,0,1-1.1.608,1.687,1.687,0,0,0-1.086,1.558V16H53.169v-.123a1.684,1.684,0,0,0-1.086-1.557,5.024,5.024,0,0,1-1.1-.61,1.757,1.757,0,0,0-1.875-.133l-.178.1-.8-1.319.106-.058a1.658,1.658,0,0,0,.853-1.672A4.471,4.471,0,0,1,49.05,10Z"/><path fill="#404040" d="M54 13.25A3.25 3.25 0 1050.75 10 3.254 3.254 0 0054 13.25zm0-4.5A1.25 1.25 0 1152.75 10 1.252 1.252 0 0154 8.75zM16.634 58.951l1.127-1.867a1.63 1.63 0 00.183-1.278 1.685 1.685 0 00-.812-1.033l-.216-.119a6.307 6.307 0 000-1.308l.216-.119a1.685 1.685 0 00.812-1.033 1.631 1.631 0 00-.182-1.277l-1.128-1.868a1.732 1.732 0 00-2.3-.6l-.259.144a6.944 6.944 0 00-1.243-.7v-.222A1.69 1.69 0 0011.127 46H8.873a1.69 1.69 0 00-1.7 1.672v.222a7.065 7.065 0 00-1.243.694l-.26-.143a1.733 1.733 0 00-2.3.6L2.239 50.916a1.63 1.63 0 00-.183 1.278 1.685 1.685 0 00.812 1.033l.216.119a6.307 6.307 0 000 1.308l-.216.119a1.685 1.685 0 00-.812 1.033 1.631 1.631 0 00.182 1.277l1.128 1.868a1.73 1.73 0 002.3.6l.259-.144a6.944 6.944 0 001.243.7v.222A1.69 1.69 0 008.873 62h2.254a1.69 1.69 0 001.7-1.672v-.222a7.065 7.065 0 001.243-.694l.26.143A1.73 1.73 0 0016.634 58.951zM14.95 54a4.445 4.445 0 01-.045.626 1.66 1.66 0 00.852 1.673l.107.058-.8 1.319-.179-.1a1.751 1.751 0 00-1.876.134 4.957 4.957 0 01-1.1.608 1.687 1.687 0 00-1.086 1.558V60H9.169v-.123A1.684 1.684 0 008.083 58.32a5.024 5.024 0 01-1.1-.61 1.753 1.753 0 00-1.875-.133l-.178.1-.8-1.319.106-.058A1.658 1.658 0 005.1 54.627a4.384 4.384 0 010-1.253A1.66 1.66 0 004.243 51.7l-.107-.058.8-1.319.179.1a1.753 1.753 0 001.876-.134 4.957 4.957 0 011.1-.608 1.687 1.687 0 001.086-1.558V48h1.662v.123a1.684 1.684 0 001.086 1.557 5.024 5.024 0 011.1.61 1.757 1.757 0 001.875.133l.178-.1.8 1.319-.106.058a1.658 1.658 0 00-.853 1.672A4.471 4.471 0 0114.95 54z"/><path fill="#404040" d="M10 50.75A3.25 3.25 0 1013.25 54 3.254 3.254 0 0010 50.75zm0 4.5A1.25 1.25 0 1111.25 54 1.252 1.252 0 0110 55.25zM5.413 43.6A29.017 29.017 0 0142.633 5.011l.734-1.861A31.016 31.016 0 003.58 44.4zM58.587 20.4A29.015 29.015 0 0120.4 58.587l-.8 1.833A31.015 31.015 0 0060.42 19.6z"/><rect width="24" height="24" x="20" y="20" fill="#95c0f8" rx="2"/><path fill="#85acde" d="M43.41,20.59,20.59,43.41A1.955,1.955,0,0,1,20,42V22a2.006,2.006,0,0,1,2-2H42A1.955,1.955,0,0,1,43.41,20.59Z"/><rect width="2" height="9" x="38.5" y="29.5" fill="#404040"/><rect width="2" height="6" x="33.5" y="32.5" fill="#404040"/><rect width="2" height="8" x="28.5" y="30.5" fill="#404040"/><rect width="2" height="5" x="23.5" y="33.5" fill="#404040"/><path fill="#404040" d="M34.472,28.317l-4.457-2.674a1,1,0,0,0-1.07.025l-6,4,1.11,1.664,5.473-3.649,4.457,2.674a1,1,0,0,0,1.07-.025l6-4-1.11-1.664Z"/><path fill="#404040" d="M42,19H39V17H37v2H33V17H31v2H27V17H25v2H22a3,3,0,0,0-3,3v3H17v2h2v4H17v2h2v4H17v2h2v3a3,3,0,0,0,3,3h3v2h2V45h4v2h2V45h4v2h2V45h3a3,3,0,0,0,3-3V39h2V37H45V33h2V31H45V27h2V25H45V22A3,3,0,0,0,42,19Zm1,23a1,1,0,0,1-1,1H22a1,1,0,0,1-1-1V22a1,1,0,0,1,1-1H42a1,1,0,0,1,1,1Z"/></svg>